<svg width="76" height="95" viewBox="0 0 76 95" fill="none" xmlns="http://www.w3.org/2000/svg">
<path d="M3.84 44.608C3.84 38.8053 5.22667 34.304 8 31.104C10.7733 27.904 14.6347 26.304 19.584 26.304C24.5333 26.304 28.3947 27.904 31.168 31.104C33.9413 34.304 35.328 38.8053 35.328 44.608V54.592C35.328 60.5653 33.9413 65.1093 31.168 68.224C28.3947 71.3387 24.5333 72.896 19.584 72.896C14.6347 72.896 10.7733 71.3387 8 68.224C5.22667 65.1093 3.84 60.5653 3.84 54.592V44.608ZM19.584 67.904C23.04 67.904 25.6213 66.7307 27.328 64.384C29.0773 61.9947 29.952 58.6027 29.952 54.208V44.992C29.952 40.896 29.0773 37.5893 27.328 35.072C25.6213 32.5547 23.04 31.296 19.584 31.296C16.128 31.296 13.5253 32.5547 11.776 35.072C10.0693 37.5893 9.216 40.896 9.216 44.992V54.208C9.216 58.6027 10.0693 61.9947 11.776 64.384C13.5253 66.7307 16.128 67.904 19.584 67.904ZM40.4675 44.608C40.4675 38.8053 41.8542 34.304 44.6275 31.104C47.4008 27.904 51.2622 26.304 56.2115 26.304C61.1608 26.304 65.0222 27.904 67.7955 31.104C70.5688 34.304 71.9555 38.8053 71.9555 44.608V54.592C71.9555 60.5653 70.5688 65.1093 67.7955 68.224C65.0222 71.3387 61.1608 72.896 56.2115 72.896C51.2622 72.896 47.4008 71.3387 44.6275 68.224C41.8542 65.1093 40.4675 60.5653 40.4675 54.592V44.608ZM56.2115 67.904C59.6675 67.904 62.2488 66.7307 63.9555 64.384C65.7048 61.9947 66.5795 58.6027 66.5795 54.208V44.992C66.5795 40.896 65.7048 37.5893 63.9555 35.072C62.2488 32.5547 59.6675 31.296 56.2115 31.296C52.7555 31.296 50.1528 32.5547 48.4035 35.072C46.6968 37.5893 45.8435 40.896 45.8435 44.992V54.208C45.8435 58.6027 46.6968 61.9947 48.4035 64.384C50.1528 66.7307 52.7555 67.904 56.2115 67.904Z" fill="#0A7AFD"/>
<circle cx="26.5" cy="40.5" r="8.5" fill="#0A7AFD"/>
<circle cx="62.5" cy="40.5" r="8.5" fill="#0A7AFD"/>
<path d="M14 17.5093C17.8333 11.8426 27.3 3.90926 34.5 17.5093" stroke="#0A7AFD" stroke-width="5"/>
<path d="M48 17.5093C51.8333 11.8426 61.3 3.90926 68.5 17.5093" stroke="#0A7AFD" stroke-width="5"/>
<path d="M23 80.5C23.6667 86.6667 31.8 95.3 59 80.5" stroke="#0A7AFD" stroke-width="5"/>
</svg>
